<?xml version="1.0" encoding="UTF-8" standalone="no"?>
<!-- Created with Inkscape (http://www.inkscape.org/) -->

<svg
   width="208mm"
   height="208mm"
   viewBox="0 0 208 208"
   version="1.1"
   id="svg5"
   xmlSpace="preserve"
   xmlns="http://www.w3.org/2000/svg"
   xmlnsSvg="http://www.w3.org/2000/svg"><defs
     id="defs2" /><g
     id="layer1"
     transform="translate(-39.080291,-53.916028)"><g
       id="g332"
       transform="translate(38.670105,45.502122)"><path
         style="display:inline;fill:#000000;stroke-width:0.352778"
         d="m 150.56589,170.50251 c -6.83559,-1.90632 -14.62777,-8.39344 -17.04799,-14.19273 l -0.77293,-1.85208 -20.66078,-0.008 c -23.032454,-0.009 -22.36684,0.0582 -24.484773,-2.45882 l -0.972587,-1.15585 0.810792,-0.91661 c 0.445933,-0.50413 2.150347,-2.34815 3.787585,-4.09782 l 2.976795,-3.1812 24.187098,-0.17639 c 24.1261,-0.17594 24.19198,-0.1784 26.12737,-0.9752 3.97837,-1.63791 6.91189,-4.57143 8.54979,-8.5498 l 0.79882,-1.94028 V 105.15709 79.316212 l 1.60158,-9.2e-5 c 2.1658,-1.23e-4 5.47312,0.89945 7.35002,1.999164 2.6381,1.54572 4.22041,3.254738 5.60232,6.050947 l 1.32108,2.673117 v 27.005702 27.0057 l -1.14853,2.34768 c -1.85163,3.78489 -5.57921,6.74578 -9.68478,7.6928 -0.83265,0.19207 -2.60906,0.3531 -3.94756,0.35784 l -2.43365,0.009 0.20804,2.91042 c 0.21688,3.03404 1.71968,7.46597 3.66145,10.79801 0.81056,1.39091 0.84371,1.58992 0.34747,2.08616 -0.7611,0.7611 -3.89021,0.88786 -6.17663,0.25022 z m -93.934344,-16.71446 -0.826971,-0.66964 1.658549,-2.41716 c 2.840521,-4.13977 5.402319,-10.8333 5.80771,-15.17454 l 0.203518,-2.17943 -6.672305,-0.11632 -6.672302,-0.11632 -2.448546,-1.20636 c -4.136661,-2.03806 -7.01888,-5.51507 -8.113522,-9.78787 -0.482825,-1.88466 -0.540222,-5.60747 -0.454035,-29.44825 l 0.09866,-27.290854 0.791238,-1.940278 c 1.719276,-4.216026 5.281842,-7.509679 9.54811,-8.827396 2.193178,-0.677404 3.405692,-0.697604 41.871763,-0.697604 38.454167,0 39.678777,0.02039 41.855197,0.696743 5.7076,1.773721 9.63672,6.46042 10.51581,12.543371 0.47044,3.255229 0.47389,49.615818 0.004,52.866938 -0.8972,6.20689 -5.32215,11.14762 -11.45273,12.7877 -1.37502,0.36784 -6.24155,0.4728 -22.07454,0.47606 l -20.310663,0.004 -3.322571,3.79236 c -6.46727,7.38171 -9.93043,10.06099 -18.145008,14.03792 -7.199369,3.48543 -10.056884,4.12788 -11.86131,2.66674 z m 12.84278,-52.36948 c 1.488355,-0.62308 3.583559,-2.972767 4.131638,-4.633465 1.081497,-3.276971 -0.399468,-7.23494 -3.320122,-8.873236 -3.604042,-2.021632 -7.570358,-1.072709 -10.097386,2.415748 -2.533883,3.497929 -1.186367,8.757542 2.780616,10.853273 1.543223,0.81527 4.838005,0.93565 6.505254,0.23768 z m 25.223611,-0.77736 c 1.544909,-0.644367 3.437333,-2.374506 4.22499,-3.862681 0.769515,-1.4539 0.734829,-4.95735 -0.06422,-6.486666 -3.716711,-7.113461 -14.314459,-4.661662 -14.314459,3.311666 0,5.298761 5.380902,9.028341 10.153692,7.037681 z M 120.86029,99.4346 c 2.7575,-1.406772 4.57753,-4.808795 4.09634,-7.656925 -1.00049,-5.921869 -7.97405,-8.509883 -12.41759,-4.608397 -1.79378,1.574963 -2.59479,3.38121 -2.59479,5.851162 0,4.062741 3.20461,7.10948 7.47787,7.10948 1.36886,0 2.53915,-0.236674 3.43817,-0.69532 z"
         id="path334" /></g></g></svg>
