<?xml version="1.0" encoding="UTF-8" standalone="no"?>
<!-- Created with Inkscape (http://www.inkscape.org/) -->

<svg
   width="789"
   height="789"
   viewBox="0 0 208.75625 208.75626"
   version="1.1"
   id="svg587"
   xmlSpace="preserve"
   xmlns="http://www.w3.org/2000/svg"
   xmlnsSvg="http://www.w3.org/2000/svg"><defs
     id="defs584" /><g
     id="layer1"
     transform="translate(-43.716137,-59.661061)"><path
       style="fill:#000000;stroke-width:0.352778"
       d="M 144.70721,230.61519 C 102.9827,218.27263 82.39764,176.38328 90.273041,119.84492 c 0.922856,-6.62529 -2.863081,-4.75906 29.690399,-14.63557 l 28.13403,-8.535688 28.13403,8.535688 c 32.55348,9.87651 28.76754,8.01028 29.6904,14.63557 7.88091,56.57791 -12.86281,98.70416 -54.55274,110.78543 -3.56977,1.03448 -3.11009,1.03552 -6.66195,-0.0152 z m 6.15818,-2.86583 c 33.67491,-9.70327 52.56187,-38.60948 53.56163,-81.97527 0.23821,-10.33254 -0.64098,-23.8887 -1.86718,-28.78994 -0.17126,-0.68456 -52.45146,-17.085076 -54.46237,-17.085076 -2.01092,0 -54.291106,16.400516 -54.462372,17.085076 -1.869493,7.47253 -2.52312,31.30847 -1.14257,41.66633 4.863973,36.49297 20.788072,58.03217 50.489662,68.29313 4.42474,1.52861 5.12584,1.60027 7.8832,0.80575 z m -8.05959,-6.67816 c -30.11151,-10.11218 -46.194157,-36.8098 -46.209041,-76.70822 -0.0028,-8.04208 1.245955,-22.23953 2.073712,-23.5729 0.117976,-0.19004 11.283539,-3.71049 24.812359,-7.82323 l 24.59786,-7.47771 24.61464,7.47961 c 13.53805,4.11378 24.71116,7.63424 24.82914,7.82323 0.82716,1.32507 2.07671,15.52821 2.07371,23.571 -0.015,40.31299 -16.41385,67.09327 -47.17266,77.03589 -4.82635,1.5601 -3.90498,1.59148 -9.61972,-0.32767 z m 19.83236,-56.17794 c 15.05229,-15.03017 22.19184,-22.39533 22.3332,-23.03894 0.52218,-2.37747 -2.0417,-4.93942 -4.38025,-4.37694 -0.58949,0.14178 -8.23906,7.533 -21.29232,20.5732 l -20.37227,20.35191 -9.61383,-9.5948 c -5.28761,-5.27713 -10.05016,-9.757 -10.58344,-9.95526 -2.46202,-0.91531 -5.17151,1.47145 -4.68661,4.12837 0.26447,1.44907 21.04781,22.76875 23.27799,23.8787 2.25594,1.12277 1.78768,1.52905 25.31753,-21.96624 z"
       id="path720" /></g></svg>
