<?xml version="1.0" encoding="UTF-8" standalone="no"?>
<!-- Created with Inkscape (http://www.inkscape.org/) -->

<svg
   width="788"
   height="788"
   viewBox="0 0 208.49168 208.49167"
   version="1.1"
   id="svg401"
   xmlSpace="preserve"
   xmlns="http://www.w3.org/2000/svg"
   xmlnsSvg="http://www.w3.org/2000/svg"><defs
     id="defs398" /><g
     id="layer1"
     transform="translate(-35.509062,-81.195397)"><path
       style="display:inline;fill:#000000;stroke-width:0.352778"
       d="m 68.846561,194.43803 v -32.98472 h 61.912499 61.9125 v 32.98472 32.98472 h -61.9125 -61.912499 z m 118.800059,0.0882 0.0903,-27.78125 H 130.93759 74.138228 v 27.87052 27.87052 l 56.709032,-0.0893 56.70903,-0.0893 z m -110.333392,0.0771 c 0,-19.43928 0.094,-24.74147 0.440972,-24.87418 0.242535,-0.0928 9.800661,-0.12747 21.240281,-0.0771 l 20.799309,0.0915 -1.85237,0.96097 c -18.886857,9.798 -18.826172,37.23398 0.10493,47.44028 l 2.12938,1.14801 -21.431252,0.008 -21.43125,0.008 z m 65.440282,23.60495 c 19.83875,-10.17521 19.4494,-35.55462 -0.73912,-48.17939 -0.52453,-0.32801 4.0309,-0.42478 20.75926,-0.44097 l 21.43125,-0.0207 v 24.87084 24.87083 l -21.78403,-0.007 -21.78403,-0.007 2.11667,-1.08563 z m -14.90937,-6.39597 0.0125,-2.20486 -1.90972,-0.24207 c -1.99067,-0.25234 -5.13507,-1.19318 -5.80921,-1.73819 -0.32258,-0.26079 0.6068,-4.98776 1.08632,-5.52513 0.0476,-0.0534 0.83916,0.22552 1.75893,0.61978 5.3253,2.28269 10.77476,1.37622 10.77476,-1.79229 0,-1.4824 -1.50534,-2.83007 -4.30696,-3.85584 -5.60938,-2.0538 -8.3262,-4.11029 -9.10504,-6.89206 -1.24074,-4.4315 1.66,-9.1193 6.43921,-10.40621 l 1.32835,-0.35768 v -2.27946 -2.27946 h 2.27545 2.27545 l 0.1058,2.02169 0.1058,2.0217 1.76389,0.28373 c 2.42203,0.38961 5.11528,1.29981 5.11528,1.72875 0,0.19509 -0.27441,1.38453 -0.6098,2.64319 -0.6781,2.54485 -0.32377,2.42417 -3.97631,1.35431 -4.84412,-1.41887 -8.95699,0.45851 -7.39567,3.37585 0.39262,0.73364 2.41658,1.83237 5.80817,3.15304 7.56234,2.94477 9.84135,8.81472 5.58757,14.39172 -0.90755,1.18986 -4.61299,3.24463 -5.85216,3.24519 -0.52914,2.4e-4 -0.61736,0.35316 -0.61736,2.46972 v 2.46945 h -2.43382 -2.43382 l 0.0125,-2.20487 z m 68.70798,-22.48958 v -31.75 H 135.87434 75.196561 v -2.64583 -2.64584 h 63.323609 63.32362 v 34.39584 34.39583 h -2.64584 -2.64583 z m 8.81944,-8.81842 v -31.74899 l -60.58958,-0.0892 -60.589585,-0.0892 v -2.46945 -2.46944 l 63.235415,-0.0892 63.23542,-0.0892 v 34.3968 34.3968 h -2.64583 -2.64584 z"
       id="path534" /></g></svg>
